HIERARCHY
ROOT Hips
{
  OFFSET 0 0 0
  CHANNELS 6 Xposition Yposition Zposition Zrotation Yrotation Xrotation
  JOINT LeftThigh
  {
    OFFSET 8.409438 0 -5.917753
    CHANNELS 3 Zrotation Yrotation Xrotation
    JOINT LeftLeg
    {
      OFFSET 0 0 -42.358652
      CHANNELS 3 Zrotation Yrotation Xrotation
      JOINT LeftFoot
      {
        OFFSET 0 0 -39.357303
        CHANNELS 3 Zrotation Yrotation Xrotation
      }
    }
  }
  JOINT RightThigh
  {
    OFFSET -8.409438 0 -5.917753
    CHANNELS 3 Zrotation Yrotation Xrotation
    JOINT RightLeg
    {
      OFFSET 0 0 -42.358652
      CHANNELS 3 Zrotation Yrotation Xrotation
      JOINT RightFoot
      {
        OFFSET 0 0 -39.357303
        CHANNELS 3 Zrotation Yrotation Xrotation
      }
    }
  }
  JOINT SpineLow
  {
    OFFSET 0 0 4.719101
    CHANNELS 3 Zrotation Yrotation Xrotation
    JOINT SpineMid
    {
      OFFSET 0 0 12.899191
      CHANNELS 3 Zrotation Yrotation Xrotation
      JOINT Chest
      {
        OFFSET 0 0 12.899191
        CHANNELS 3 Zrotation Yrotation Xrotation
        JOINT LeftShoulder
        {
          OFFSET 7.550562 1.41573 9.438202
          CHANNELS 3 Zrotation Yrotation Xrotation
          JOINT LeftArm
          {
            OFFSET 9.155056 0 4.247191
            CHANNELS 3 Zrotation Yrotation Xrotation
            JOINT LeftForearm
            {
              OFFSET 0 0 25.771955
              CHANNELS 3 Zrotation Yrotation Xrotation
              JOINT LeftHand
              {
                OFFSET 0 0 25.197169
                CHANNELS 3 Zrotation Yrotation Xrotation
              }
            }
          }
        }
        JOINT RightShoulder
        {
          OFFSET -7.550562 1.41573 9.438202
          CHANNELS 3 Zrotation Yrotation Xrotation
          JOINT RightArm
          {
            OFFSET -9.155056 0 4.247191
            CHANNELS 3 Zrotation Yrotation Xrotation
            JOINT RightForearm
            {
              OFFSET 0 0 -25.771955
              CHANNELS 3 Zrotation Yrotation Xrotation
              JOINT RightHand
              {
                OFFSET 0 0 -25.197169
                CHANNELS 3 Zrotation Yrotation Xrotation
              }
            }
          }
        }
        JOINT Neck
        {
          OFFSET 0 0 15.101124
          CHANNELS 3 Zrotation Yrotation Xrotation
          JOINT Head
          {
            OFFSET 0 0 11.325843
            CHANNELS 3 Zrotation Yrotation Xrotation
            End Site
            {
              OFFSET 0 0 14.157303
            }
          }
        }
      }
    }
  }
}
MOTION
Frames: 17
Frame Time: 0.0
0.0  89.887642  0.0  5.319723  15.773869  -96.488777  8.884748  -10.428526  -2.285701  -10.182601  7.952345  20.7478  -4.966565  0.771508  -1.167949  -24.084999  17.23243  2.025058  -25.216799  10.147503  9.184723  9.404116  3.06751  -1.375389  3.466857  -0.89633  2.629699  9.371141  -2.817271  7.046545  9.371141  -2.817271  7.046544  -20.273075  4.412308  -14.877842  122.998871  48.360007  -137.362756  14.611702  2.18394  15.028468  108.029214  -0.873774  15.495887  0.410546  -5.595062  8.72327  84.491304  28.474925  20.683167  22.637553  -31.395271  -104.353226  45.958741  5.784632  -14.016357  -36.879186  1.31852  -4.421633  -27.650469  1.261824  -3.250464  
0.0  89.887642  0.0  5.002291  13.280202  -96.785337  9.07422  -10.801972  -2.017677  -10.168933  8.201409  21.169652  -4.589879  0.903474  -1.081588  -24.275842  16.938511  0.927488  -24.50231  10.434572  10.264286  9.894352  3.267174  -1.500847  4.078471  -0.819033  2.852512  11.039274  -2.707752  7.637521  11.039274  -2.707752  7.637522  -18.457643  1.790181  -16.198132  129.40133  45.814796  -134.991716  15.525252  1.13862  19.007179  108.417427  -0.023122  17.116694  0.762211  -7.116887  7.8822  84.899377  28.93184  22.372364  21.042267  -31.055567  -104.468815  47.065498  4.938416  -16.413821  -37.562744  0.260151  -4.491763  -28.171993  0.473977  -3.367983  
0.0  89.887642  0.0  4.709242  10.553263  -97.021401  8.797454  -11.119804  -1.870113  -9.641861  8.472181  21.829311  -4.135692  0.968803  -0.918276  -24.26785  16.505417  -0.326556  -23.538624  10.821361  11.544641  10.339685  3.478039  -1.602301  4.66197  -0.863215  3.074977  12.617113  -2.936006  8.208062  12.617113  -2.936006  8.208062  -16.661175  0.202021  -18.022276  137.135355  42.342437  -133.081796  16.648352  -0.19302  23.836149  108.692011  0.512279  20.801058  0.754207  -7.502609  7.090969  84.755003  29.434846  23.629004  19.17274  -30.532839  -104.319596  48.627795  4.534112  -18.433807  -37.997402  -0.483338  -4.803237  -28.503832  -0.063473  -3.649369  
0.0  89.887642  0.0  4.515706  7.666185  -97.283999  8.377919  -11.443786  -1.625851  -8.754008  8.806844  22.568342  -3.937817  0.965379  -0.807218  -24.10863  16.027542  -1.765476  -22.145599  11.280722  13.094887  10.684142  3.690523  -1.637384  5.241582  -0.921789  3.152112  14.189116  -3.181769  8.376063  14.189116  -3.181769  8.376063  -14.925316  -0.870295  -18.445896  145.01058  38.975671  -131.850909  16.60476  -1.29563  29.516434  109.392314  1.888982  24.970261  -0.196206  -7.54994  7.34689  84.016543  30.073694  24.375942  17.00248  -29.954312  -104.185875  49.86483  4.012487  -20.438349  -38.260379  -0.757409  -4.611827  -28.702564  -0.279989  -3.522832  
0.0  89.887642  0.0  4.464873  4.661785  -97.596021  9.235353  -11.860952  -0.533613  -8.911639  9.217086  22.438114  -3.957988  0.914326  -0.813613  -23.420636  15.452287  -2.964223  -20.709747  11.706093  14.578904  10.756972  3.896573  -1.619465  5.803467  -0.962453  2.980902  15.728785  -3.321089  7.8699  15.728786  -3.321089  7.8699  -13.401478  -1.601554  -16.431383  152.213714  35.970164  -131.895172  15.567388  -2.792827  36.446262  109.192141  4.09087  28.576446  -1.999909  -7.813017  9.338059  82.342709  30.829157  24.616994  15.225828  -29.452245  -104.667126  51.151515  3.304476  -22.144407  -38.322034  -0.388479  -3.627694  -28.744957  -0.063653  -2.758123  
0.0  89.887642  0.0  4.575249  1.544802  -97.995271  9.098537  -12.004891  0.035446  -8.095645  9.69472  23.048694  -3.755717  0.898544  -0.8104  -22.617097  14.93147  -4.394059  -18.705186  12.091543  16.421407  10.816575  4.09978  -1.517863  6.30819  -0.987866  2.712983  17.120474  -3.379545  7.106715  17.120474  -3.379545  7.106715  -11.70614  -2.245326  -13.496714  156.98513  33.107736  -134.720245  12.709593  -4.440214  44.119449  108.106564  5.685634  29.885847  -4.446873  -7.861323  11.864251  79.859214  31.418227  24.293188  14.053322  -29.166253  -105.317916  52.710164  3.156133  -23.419224  -38.029465  0.339523  -2.380778  -28.521236  0.405007  -1.772595  
0.0  89.887642  0.0  4.708235  -1.508192  -98.616091  9.061486  -12.246816  0.77179  -7.309697  10.302979  23.848114  -3.480968  0.879164  -0.912602  -21.846479  14.218774  -5.734947  -16.280299  12.584862  18.409389  10.78065  4.220764  -1.396691  6.724095  -1.111029  2.482349  18.260477  -3.692972  6.42362  18.260477  -3.692972  6.42362  -10.273209  -2.100679  -10.496488  159.481293  31.352724  -139.020971  6.244804  -5.858389  52.053432  105.41442  6.111644  30.292144  -7.909578  -7.308807  14.034053  77.680327  31.621947  24.202784  12.789176  -29.27534  -105.581607  55.049085  3.646953  -24.601662  -37.46873  1.428223  -1.479443  -28.09685  1.167306  -1.026355  
0.0  89.887642  0.0  4.797569  -4.913678  -99.260177  9.471413  -12.682172  1.441019  -6.904055  11.094781  24.491816  -3.113408  0.937774  -1.029098  -20.129328  13.582448  -6.938757  -14.220811  12.760742  20.573161  10.700344  4.196153  -1.31673  6.898938  -1.293379  2.469275  18.725663  -4.198965  6.326947  18.725664  -4.198965  6.326947  -8.172353  -1.276525  -8.416969  160.657115  29.611566  -143.945222  -2.547361  -6.179757  59.646691  100.500507  6.163161  28.835412  -10.753916  -6.055184  14.715805  75.844555  31.670899  24.287927  9.579721  -28.789135  -104.456098  57.793556  4.066139  -26.505565  -35.913452  2.444171  -1.560612  -26.924986  1.932972  -1.030526  
0.0  89.887642  0.0  4.887483  -9.47601  -100.231125  10.918406  -13.419987  2.345469  -6.4161  11.942601  25.268822  -2.676089  1.010685  -1.184084  -17.02746  12.83447  -7.812304  -12.542465  13.020232  22.703336  10.697582  4.255978  -1.173645  6.765539  -1.23213  2.564765  18.359061  -4.047261  6.6119  18.35906  -4.047261  6.6119  -4.047395  -1.510952  -6.946783  162.238049  27.065305  -149.470646  -13.007599  -5.066557  66.727285  95.881669  6.475169  29.5393  -11.11682  -5.931605  14.730519  73.870452  31.562013  24.372712  3.845977  -26.632092  -101.350554  62.906326  5.692188  -29.356202  -32.52671  2.819598  -1.583043  -24.383006  2.206523  -1.040127  
0.0  89.887642  0.0  4.973291  -13.580269  -100.420183  11.870538  -13.926834  2.40913  -5.562862  12.783285  26.273117  -2.171968  1.003149  -1.355615  -14.339622  11.790351  -9.454738  -11.077688  13.440334  24.833605  10.79875  4.254977  -1.020057  6.145233  -1.136457  2.588919  16.669604  -3.734367  6.74287  16.669605  -3.734367  6.74287  1.053257  -0.647165  -5.31851  165.760734  24.713872  -156.012372  -22.331459  -0.511198  74.086873  85.645096  6.34041  27.579486  -9.678089  -4.952921  14.766995  71.5598  32.010802  24.188573  -3.639582  -22.322411  -96.538408  69.001574  8.530499  -31.806719  -27.714005  3.444298  -2.012139  -20.768176  2.681123  -1.355419  
0.0  89.887642  0.0  5.079034  -18.678165  -100.125999  13.609032  -14.35887  1.944459  -3.91258  13.506799  27.601335  -1.766934  0.817838  -1.601072  -10.683938  10.455  -11.612538  -9.556227  13.909557  27.073986  10.757588  4.241528  -0.826642  5.617939  -1.061954  2.51799  15.238977  -3.463982  6.599554  15.238976  -3.463982  6.599553  6.419156  0.764347  -2.793427  170.948127  22.590098  -162.465974  -31.047085  5.961126  79.440459  71.196941  9.108983  28.242102  -8.496215  -3.617108  15.043381  68.906513  33.714975  23.927825  -10.883837  -14.925656  -91.321355  74.697155  11.529242  -32.275834  -22.770349  4.244297  -2.512371  -17.052834  3.282311  -1.727745  
0.0  89.887642  0.0  5.223306  -23.904526  -99.87359  15.110893  -14.820666  1.528287  -1.311171  14.361266  29.260813  -1.273648  0.550303  -1.794745  -6.757561  9.177408  -13.615035  -8.444623  14.437971  29.158491  10.747769  4.229349  -0.563418  5.405307  -0.952484  2.238926  14.681769  -3.084766  5.876376  14.681769  -3.084766  5.876376  8.917681  2.034279  1.772614  177.701882  21.863555  -167.962386  -37.277262  16.513865  79.566178  55.805191  13.6766  31.17369  -8.924275  -3.084318  16.601985  65.845827  36.691138  23.489567  -15.486593  -5.436895  -85.740626  77.253102  12.401339  -31.227744  -18.895827  4.812792  -2.165858  -14.146659  3.680761  -1.475913  
0.0  89.887642  0.0  5.059241  -29.011627  -99.602343  16.40267  -15.942396  1.021418  1.895852  15.684006  31.305082  -0.987974  0.263338  -1.876831  -2.756815  8.012688  -15.605868  -8.169908  14.989297  31.23295  10.666669  4.306623  -0.402719  5.439697  -0.891639  1.737796  14.804062  -2.811201  4.525042  14.804062  -2.811201  4.525042  7.596985  3.446577  7.357214  -175.457181  20.661745  -175.123725  -47.963959  30.402063  75.166482  46.565284  18.070416  39.844292  -10.270672  -3.348221  19.263569  62.950797  40.181876  22.995437  -15.644438  3.037151  -78.721911  77.364543  10.70013  -29.218552  -16.063834  5.063451  -0.825493  -12.033189  3.822408  -0.48566  
0.0  89.887642  0.0  5.243447  -32.401955  -100.951569  16.14284  -17.646202  1.705623  5.113477  17.510225  33.950177  -0.762624  0.11986  -1.814821  -0.250716  7.542194  -16.090295  -8.84375  15.981182  32.788027  10.878025  4.398878  -0.386729  5.493069  -0.795491  1.33646  14.971821  -2.463294  3.452809  14.97182  -2.463294  3.452808  6.015898  4.252883  17.016284  -173.134326  16.654684  -178.239402  -58.4634  38.323485  68.093596  37.35319  13.357907  49.567196  -13.148093  -4.441738  23.017696  61.640468  44.348958  22.574402  -11.677443  8.026063  -69.921156  77.147397  7.766464  -25.583188  -14.480742  4.603311  1.242961  -10.864124  3.425338  1.041728  
0.0  89.887642  0.0  5.746472  -34.101427  -102.692347  14.940046  -18.976192  2.456489  7.7117  19.110186  36.868467  -0.744692  0.09752  -1.670869  -1.468206  7.342585  -15.575972  -7.647505  16.16311  33.053113  11.119928  4.525221  -0.283386  5.680956  -0.583848  1.135427  15.500651  -1.85109  2.947985  15.500653  -1.85109  2.947985  3.173973  5.278866  25.381317  -174.29133  12.390061  -176.678758  -63.327107  38.621872  67.679977  22.042862  14.956272  42.455631  -17.576719  -5.129949  26.489691  61.782426  49.419791  21.91722  -6.503688  9.515577  -59.488293  78.208705  6.1197  -20.682051  -14.597843  3.401934  2.783348  -10.960925  2.486714  2.169732  
0.0  89.887642  0.0  6.72737  -34.59324  -104.620614  14.32872  -19.174106  2.781899  8.177646  20.113613  39.525367  -0.611738  0.083834  -1.474025  -4.584561  8.177459  -14.588361  -4.979388  15.076495  32.934911  11.571183  4.366649  7.94E-4  5.495761  -0.239157  1.399975  15.003425  -0.966507  3.750102  15.003425  -0.966507  3.750102  3.543258  5.507726  25.818714  -177.231836  12.885648  -178.788559  -69.824098  44.127007  62.507872  22.119253  14.14451  34.43299  -19.569931  -5.682195  27.105749  66.02467  54.85811  23.632317  -2.148258  10.042398  -47.456692  81.944376  7.037358  -14.309811  -14.148564  1.982118  2.750984  -10.619536  1.423829  2.11029  
0.0  89.887642  0.0  7.694427  -35.512718  -105.462426  16.014325  -18.564794  1.898889  6.587906  20.512078  41.369234  -0.114508  0.150275  -1.214127  -7.13159  9.091679  -14.304387  -1.770669  12.850311  32.567208  11.922682  4.282184  0.303038  5.017856  0.069432  1.775227  13.712423  -0.178333  4.842799  13.712424  -0.178333  4.842799  4.025766  6.651435  23.225494  -178.686776  15.877943  179.275863  -75.069124  48.897665  53.584036  30.669674  7.34368  26.206639  -18.277221  -6.663118  24.899622  76.49015  59.409315  30.797868  3.071178  10.379845  -34.05653  86.456056  7.329862  -9.617057  -12.370816  1.136611  1.829974  -9.281308  0.815814  1.396129  
